<svg xmlns="http://www.w3.org/2000/svg" viewBox="0 0 384 512" preserveAspectRatio="xMidYMid meet">
  <path fill="#000000" d="M318.7 268.7c-.2-36.7 16-64.6 50.2-85.3-18.8-27.5-47.2-42.6-85.2-45.1-35.8-2.4-74.4 21.1-88.2 21.1-14.3 0-47.3-20.6-73.2-20.1-56.5.9-117.1 43.4-117.1 130.1 0 27.3 5 55.3 15 82.9 13.4 36.6 61.8 126.1 112.3 124.4 26.6-.7 45.5-18.8 80.2-18.8 34.1 0 51.8 18.8 80.2 18.2 51.2-.9 95.8-82.2 109.2-118.9-68.9-32.5-64.2-95-63.4-107.5zM251.3 57.3c27.3-32.4 24.8-61.9 24-72.3-23.2 1.1-50.3 15.8-66.5 34.5-17.6 19.7-28.5 44.5-26.1 71.6 25.6 2 51.4-12.9 68.6-33.8z"/>
</svg>
