<svg xmlns="http://www.w3.org/2000/svg" viewBox="0 0 256 262" preserveAspectRatio="xMidYMid meet">
  <path fill="#4285F4" d="M255.9 133.5c0-9.6-.9-16.6-2.8-23.8H130.7v45.1h71.9c-1.5 11.2-9.4 28.1-27 39.5l-.2 1.6 39.2 30.4 2.7.3c24.6-22.8 38.6-56.3 38.6-93.1z"/>
  <path fill="#34A853" d="M130.7 261.1c35.1 0 64.6-11.6 86.1-31.5l-41.1-31.9c-11 7.7-25.7 13.1-45 13.1-34.4 0-63.6-22.7-74-54.3l-1.5.1-40.2 31-.5 1.4C35.8 234.3 80.6 261.1 130.7 261.1z"/>
  <path fill="#FBBC05" d="M56.7 156.5c-2.7-8.1-4.3-16.8-4.3-25.8s1.6-17.7 4.2-25.8l-.1-1.7L16 71.9l-1.3.6C6.3 90 2 107.8 2 130.7s4.3 40.7 12.7 58.2l44.1-34.2z"/>
  <path fill="#EA4335" d="M130.7 60.3c24.4 0 40.8 10.5 50.2 19.3l36.6-35.8C195.1 18.3 165.8 6 130.7 6 80.6 6 35.8 32.9 14.7 72.5l42.1 32.4c10.4-31.6 39.6-54.6 73.9-54.6z"/>
</svg>
